<mxfile host="app.diagrams.net" modified="2024-01-14T04:46:41.283Z" agent="Mozilla/5.0 (Windows NT 10.0; Win64; x64) AppleWebKit/537.36 (KHTML, like Gecko) Chrome/120.0.0.0 Safari/537.36 Edg/120.0.0.0" etag="6-i7ST-Ir_FNkClmjADl" version="22.1.18" type="device">
  <diagram id="LaHLeu69Ds2RYiCowl0G" name="Página-1">
    <mxGraphModel dx="1002" dy="1704" grid="1" gridSize="10" guides="1" tooltips="1" connect="1" arrows="1" fold="1" page="1" pageScale="1" pageWidth="827" pageHeight="1169" math="0" shadow="0">
      <root>
        <mxCell id="0" />
        <mxCell id="1" parent="0" />
        <mxCell id="In3GsD_WQRW5BdMA_R7S-1" value="INSTRUTORES" style="swimlane;childLayout=stackLayout;horizontal=1;startSize=50;horizontalStack=0;rounded=1;fontSize=14;fontStyle=0;strokeWidth=2;resizeParent=0;resizeLast=1;shadow=0;dashed=0;align=center;arcSize=4;whiteSpace=wrap;html=1;fillColor=#dae8fc;strokeColor=#6c8ebf;" parent="1" vertex="1">
          <mxGeometry x="90" y="-447.5" width="200" height="155" as="geometry" />
        </mxCell>
        <mxCell id="In3GsD_WQRW5BdMA_R7S-2" value="&lt;b&gt;&lt;font color=&quot;#000099&quot;&gt;id &lt;/font&gt;(INTEGER)&lt;br&gt;&lt;font color=&quot;#000099&quot;&gt;nome do instrutor &lt;/font&gt;(STRING)&lt;br&gt;&lt;font color=&quot;#000099&quot;&gt;telefone do instrutor &lt;/font&gt;(STRING)&lt;br&gt;&lt;font color=&quot;#000099&quot;&gt;e-mail do instrutor &lt;/font&gt;(STRING)&lt;br&gt;&lt;font color=&quot;#000099&quot;&gt;período de trabalho &lt;/font&gt;(STRING)&lt;br&gt;&lt;font color=&quot;#000099&quot;&gt;salário &lt;/font&gt;(DECIMAL)&lt;/b&gt;" style="align=left;strokeColor=none;fillColor=none;spacingLeft=4;fontSize=12;verticalAlign=top;resizable=0;rotatable=0;part=1;html=1;" parent="In3GsD_WQRW5BdMA_R7S-1" vertex="1">
          <mxGeometry y="50" width="200" height="105" as="geometry" />
        </mxCell>
        <mxCell id="In3GsD_WQRW5BdMA_R7S-3" value="ALUNOS" style="swimlane;childLayout=stackLayout;horizontal=1;startSize=50;horizontalStack=0;rounded=1;fontSize=14;fontStyle=0;strokeWidth=2;resizeParent=0;resizeLast=1;shadow=0;dashed=0;align=center;arcSize=4;whiteSpace=wrap;html=1;fillColor=#f8cecc;strokeColor=#b85450;" parent="1" vertex="1">
          <mxGeometry x="637" y="-292.5" width="190" height="182.5" as="geometry" />
        </mxCell>
        <mxCell id="In3GsD_WQRW5BdMA_R7S-4" value="&lt;b&gt;&lt;font color=&quot;#ff1008&quot;&gt;id &lt;/font&gt;&lt;font color=&quot;#1a1a1a&quot;&gt;(INTEGER)&lt;/font&gt;&lt;br&gt;&lt;font color=&quot;#ff1008&quot;&gt;nome do aluno &lt;/font&gt;(STRING)&lt;br&gt;&lt;font color=&quot;#ff1008&quot;&gt;telefone do aluno &lt;/font&gt;&lt;font color=&quot;#1a1a1a&quot;&gt;(STRING)&lt;/font&gt;&lt;br&gt;&lt;font color=&quot;#ff1008&quot;&gt;e-mail do aluno &lt;/font&gt;(STRING)&lt;br&gt;&lt;font color=&quot;#ff1008&quot;&gt;endereço do aluno &lt;/font&gt;(STRING)&lt;br&gt;&lt;font color=&quot;#ff1008&quot;&gt;plano id &lt;/font&gt;(STRING)&lt;br&gt;&lt;font color=&quot;#ff1008&quot;&gt;matrícula aluno id &lt;/font&gt;(INTEGER)&lt;br&gt;&lt;font color=&quot;#ff1008&quot;&gt;frequência aluno id &lt;/font&gt;(INTEGER)&lt;/b&gt;" style="align=left;strokeColor=none;fillColor=none;spacingLeft=4;fontSize=12;verticalAlign=top;resizable=0;rotatable=0;part=1;html=1;" parent="In3GsD_WQRW5BdMA_R7S-3" vertex="1">
          <mxGeometry y="50" width="190" height="132.5" as="geometry" />
        </mxCell>
        <mxCell id="G-pwMspQCm_l3fC8CoRE-5" value="PLANOS" style="swimlane;childLayout=stackLayout;horizontal=1;startSize=50;horizontalStack=0;rounded=1;fontSize=14;fontStyle=0;strokeWidth=2;resizeParent=0;resizeLast=1;shadow=0;dashed=0;align=center;arcSize=4;whiteSpace=wrap;html=1;fillColor=#d5e8d4;strokeColor=#82b366;" parent="1" vertex="1">
          <mxGeometry x="382.5" y="-110" width="185" height="140" as="geometry" />
        </mxCell>
        <mxCell id="G-pwMspQCm_l3fC8CoRE-6" value="&lt;b&gt;&lt;font color=&quot;#009900&quot;&gt;id &lt;/font&gt;(INTEGER)&lt;br&gt;&lt;font color=&quot;#009900&quot;&gt;nome do plano &lt;/font&gt;(INTEGER)&lt;br&gt;&lt;font color=&quot;#009900&quot;&gt;combo id &lt;/font&gt;(INTEGER)&lt;br&gt;&lt;/b&gt;&lt;b style=&quot;border-color: var(--border-color);&quot;&gt;&lt;font style=&quot;border-color: var(--border-color);&quot; color=&quot;#009900&quot;&gt;modalidade id&amp;nbsp;&lt;/font&gt;(INTEGER)&lt;/b&gt;&lt;b&gt;&lt;font color=&quot;#009900&quot;&gt;&lt;br&gt;valor do plano &lt;/font&gt;(DECIMAL)&lt;/b&gt;" style="align=left;strokeColor=none;fillColor=none;spacingLeft=4;fontSize=12;verticalAlign=top;resizable=0;rotatable=0;part=1;html=1;" parent="G-pwMspQCm_l3fC8CoRE-5" vertex="1">
          <mxGeometry y="50" width="185" height="90" as="geometry" />
        </mxCell>
        <mxCell id="ZiqJFMMcZGOOglla-h1E-7" value="" style="edgeStyle=orthogonalEdgeStyle;rounded=0;orthogonalLoop=1;jettySize=auto;html=1;fillColor=#f8cecc;strokeColor=#b85450;" parent="1" source="G-pwMspQCm_l3fC8CoRE-7" target="ZiqJFMMcZGOOglla-h1E-3" edge="1">
          <mxGeometry relative="1" as="geometry">
            <Array as="points">
              <mxPoint x="168" y="-330" />
            </Array>
          </mxGeometry>
        </mxCell>
        <mxCell id="G-pwMspQCm_l3fC8CoRE-7" value="MATRICULAS" style="swimlane;childLayout=stackLayout;horizontal=1;startSize=50;horizontalStack=0;rounded=1;fontSize=14;fontStyle=0;strokeWidth=2;resizeParent=0;resizeLast=1;shadow=0;dashed=0;align=center;arcSize=4;whiteSpace=wrap;html=1;fillColor=#f8cecc;strokeColor=#b85450;" parent="1" vertex="1">
          <mxGeometry x="607" y="-510" width="220" height="200" as="geometry" />
        </mxCell>
        <mxCell id="G-pwMspQCm_l3fC8CoRE-8" value="&lt;b&gt;&lt;font color=&quot;#ff1008&quot;&gt;id &lt;/font&gt;(INTEGER)&lt;br&gt;&lt;font color=&quot;#ff1008&quot;&gt;data da matricula&amp;nbsp;&lt;/font&gt;&lt;/b&gt;&lt;b style=&quot;border-color: var(--border-color);&quot;&gt;(DATE)&lt;/b&gt;&lt;b&gt;&lt;font color=&quot;#ff1008&quot;&gt;&lt;br&gt;nome do aluno &lt;/font&gt;(STRING)&lt;br&gt;&lt;font color=&quot;#ff1008&quot;&gt;matrícula ativa&amp;nbsp;&lt;/font&gt;&lt;/b&gt;&lt;b style=&quot;border-color: var(--border-color);&quot;&gt;(BOOLEAN)&lt;br&gt;&lt;b style=&quot;border-color: var(--border-color);&quot;&gt;&lt;font style=&quot;border-color: var(--border-color);&quot; color=&quot;#ff1008&quot;&gt;&lt;b style=&quot;border-color: var(--border-color); color: rgb(0, 0, 0);&quot;&gt;&lt;b style=&quot;border-color: var(--border-color);&quot;&gt;&lt;font style=&quot;border-color: var(--border-color);&quot; color=&quot;#ff1008&quot;&gt;combo id&amp;nbsp;&lt;/font&gt;&lt;/b&gt;&lt;b style=&quot;border-color: var(--border-color);&quot;&gt;(INTEGER)&lt;/b&gt;&lt;/b&gt;&lt;br&gt;modalidade id&amp;nbsp;&lt;/font&gt;&lt;/b&gt;&lt;b style=&quot;border-color: var(--border-color);&quot;&gt;(INTEGER)&lt;/b&gt;&lt;br&gt;&lt;/b&gt;&lt;b style=&quot;border-color: var(--border-color);&quot;&gt;&lt;font style=&quot;border-color: var(--border-color);&quot; color=&quot;#ff1008&quot;&gt;plano id&amp;nbsp;&lt;/font&gt;(INTEGER)&lt;/b&gt;&lt;b&gt;&lt;br&gt;&lt;font color=&quot;#ff1008&quot;&gt;status de pagamento&amp;nbsp;&lt;/font&gt;(STRING)&lt;br&gt;&lt;/b&gt;&lt;b style=&quot;border-color: var(--border-color);&quot;&gt;&lt;font style=&quot;border-color: var(--border-color);&quot; color=&quot;#ff1008&quot;&gt;proximo vencimento&amp;nbsp;&lt;/font&gt;(DATE)&lt;/b&gt;&lt;b&gt;&lt;br&gt;&lt;/b&gt;" style="align=left;strokeColor=none;fillColor=none;spacingLeft=4;fontSize=12;verticalAlign=top;resizable=0;rotatable=0;part=1;html=1;" parent="G-pwMspQCm_l3fC8CoRE-7" vertex="1">
          <mxGeometry y="50" width="220" height="150" as="geometry" />
        </mxCell>
        <mxCell id="8vJE5jBVqwJsGsKywXQO-1" value="HISTORICO DE PRESENÇA DO ALUNO" style="swimlane;childLayout=stackLayout;horizontal=1;startSize=50;horizontalStack=0;rounded=1;fontSize=14;fontStyle=0;strokeWidth=2;resizeParent=0;resizeLast=1;shadow=0;dashed=0;align=center;arcSize=4;whiteSpace=wrap;html=1;fillColor=#f8cecc;strokeColor=#b85450;" parent="1" vertex="1">
          <mxGeometry x="637" y="-50" width="190" height="132.5" as="geometry" />
        </mxCell>
        <mxCell id="8vJE5jBVqwJsGsKywXQO-2" value="&lt;b&gt;&lt;font color=&quot;#ff1008&quot;&gt;id &lt;/font&gt;(INTEGER)&lt;br&gt;&lt;font color=&quot;#ff1008&quot;&gt;id do aluno &lt;/font&gt;(INTEGER)&lt;br&gt;&lt;font color=&quot;#ff1008&quot;&gt;data &lt;/font&gt;(DATE)&lt;br&gt;&lt;font color=&quot;#ff1008&quot;&gt;presença&amp;nbsp;&lt;/font&gt;(BOOLEAN)&lt;/b&gt;" style="align=left;strokeColor=none;fillColor=none;spacingLeft=4;fontSize=12;verticalAlign=top;resizable=0;rotatable=0;part=1;html=1;" parent="8vJE5jBVqwJsGsKywXQO-1" vertex="1">
          <mxGeometry y="50" width="190" height="82.5" as="geometry" />
        </mxCell>
        <mxCell id="ywtx3KbrLFy5aEluynCm-1" value="PROPRIETARIO" style="swimlane;childLayout=stackLayout;horizontal=1;startSize=50;horizontalStack=0;rounded=1;fontSize=14;fontStyle=0;strokeWidth=2;resizeParent=0;resizeLast=1;shadow=0;dashed=0;align=center;arcSize=4;html=1;whiteSpace=wrap;fillColor=#FFE599;strokeColor=#FFD966;gradientColor=none;swimlaneFillColor=none;glass=0;" parent="1" vertex="1">
          <mxGeometry x="355" y="-280" width="240" height="150" as="geometry" />
        </mxCell>
        <mxCell id="ywtx3KbrLFy5aEluynCm-2" value="&lt;b style=&quot;&quot;&gt;&lt;font color=&quot;#994c00&quot; style=&quot;background-color: rgb(255, 255, 255);&quot;&gt;id &lt;/font&gt;&lt;font style=&quot;background-color: rgb(255, 255, 255);&quot;&gt;(INTEGER)&lt;br&gt;&lt;/font&gt;&lt;/b&gt;&lt;b style=&quot;&quot;&gt;&lt;font style=&quot;background-color: rgb(255, 255, 255);&quot;&gt;&lt;font color=&quot;#994c00&quot;&gt;primeiro nome &lt;/font&gt;(STRING)&lt;br&gt;&lt;font color=&quot;#994c00&quot;&gt;sobrenome &lt;/font&gt;(STRING)&lt;br&gt;&lt;font color=&quot;#994c00&quot;&gt;telefone &lt;/font&gt;(STRING)&lt;br&gt;&lt;font color=&quot;#994c00&quot;&gt;email&lt;/font&gt; (STRING)&lt;br&gt;&lt;/font&gt;&lt;/b&gt;&lt;b style=&quot;border-color: var(--border-color);&quot;&gt;&lt;font style=&quot;border-color: var(--border-color); background-color: rgb(255, 255, 255);&quot;&gt;&lt;font color=&quot;#994c00&quot;&gt;salário&lt;/font&gt; (DECIMAL)&lt;/font&gt;&lt;/b&gt;&lt;b style=&quot;&quot;&gt;&lt;font style=&quot;background-color: rgb(255, 255, 255);&quot;&gt;&lt;br&gt;&lt;/font&gt;&lt;/b&gt;" style="align=left;strokeColor=none;fillColor=none;spacingLeft=4;fontSize=12;verticalAlign=top;resizable=0;rotatable=0;part=1;html=1;" parent="ywtx3KbrLFy5aEluynCm-1" vertex="1">
          <mxGeometry y="50" width="240" height="100" as="geometry" />
        </mxCell>
        <mxCell id="8vJE5jBVqwJsGsKywXQO-15" value="" style="edgeStyle=entityRelationEdgeStyle;fontSize=12;html=1;endArrow=ERmandOne;startArrow=ERmandOne;rounded=0;startSize=8;endSize=8;curved=1;entryX=0.25;entryY=1;entryDx=0;entryDy=0;exitX=0.75;exitY=0;exitDx=0;exitDy=0;fillColor=#f8cecc;strokeColor=#b85450;" parent="1" source="8vJE5jBVqwJsGsKywXQO-1" target="In3GsD_WQRW5BdMA_R7S-4" edge="1">
          <mxGeometry width="100" height="100" relative="1" as="geometry">
            <mxPoint x="500" y="-140" as="sourcePoint" />
            <mxPoint x="600" y="-240" as="targetPoint" />
          </mxGeometry>
        </mxCell>
        <mxCell id="ZiqJFMMcZGOOglla-h1E-1" value="" style="edgeStyle=entityRelationEdgeStyle;fontSize=12;html=1;endArrow=ERoneToMany;rounded=0;entryX=0.602;entryY=1.038;entryDx=0;entryDy=0;entryPerimeter=0;exitX=0.547;exitY=-0.019;exitDx=0;exitDy=0;fillColor=#f8cecc;strokeColor=#b85450;opacity=30;exitPerimeter=0;" parent="1" source="In3GsD_WQRW5BdMA_R7S-3" target="G-pwMspQCm_l3fC8CoRE-8" edge="1">
          <mxGeometry width="100" height="100" relative="1" as="geometry">
            <mxPoint x="500" y="-170" as="sourcePoint" />
            <mxPoint x="600" y="-270" as="targetPoint" />
          </mxGeometry>
        </mxCell>
        <mxCell id="ZiqJFMMcZGOOglla-h1E-2" value="MODALIDADES" style="swimlane;childLayout=stackLayout;horizontal=1;startSize=50;horizontalStack=0;rounded=1;fontSize=14;fontStyle=0;strokeWidth=2;resizeParent=0;resizeLast=1;shadow=0;dashed=0;align=center;arcSize=4;whiteSpace=wrap;html=1;fillColor=#e1d5e7;strokeColor=#9673a6;" parent="1" vertex="1">
          <mxGeometry x="100" y="-240" width="195" height="140" as="geometry" />
        </mxCell>
        <mxCell id="ZiqJFMMcZGOOglla-h1E-3" value="&lt;b style=&quot;&quot;&gt;&lt;font color=&quot;#cf26b8&quot;&gt;id &lt;/font&gt;(INTEGER)&lt;br&gt;&lt;font color=&quot;#cf26b8&quot;&gt;nome da modalidade&amp;nbsp;&lt;/font&gt;(STRING)&lt;br&gt;&lt;font color=&quot;#cf26b8&quot;&gt;período das aulas &lt;/font&gt;(STRING)&lt;br&gt;&lt;font color=&quot;#cf26b8&quot;&gt;instrutor id &lt;/font&gt;(INTEGER)&lt;br&gt;&lt;/b&gt;&lt;b style=&quot;border-color: var(--border-color);&quot;&gt;&lt;font style=&quot;border-color: var(--border-color);&quot; color=&quot;#cf26b8&quot;&gt;plano id&amp;nbsp;&lt;/font&gt;(INTEGER)&lt;/b&gt;&lt;b style=&quot;&quot;&gt;&lt;br&gt;&lt;/b&gt;" style="align=left;strokeColor=none;fillColor=none;spacingLeft=4;fontSize=12;verticalAlign=top;resizable=0;rotatable=0;part=1;html=1;" parent="ZiqJFMMcZGOOglla-h1E-2" vertex="1">
          <mxGeometry y="50" width="195" height="90" as="geometry" />
        </mxCell>
        <mxCell id="ZiqJFMMcZGOOglla-h1E-6" value="" style="edgeStyle=entityRelationEdgeStyle;fontSize=12;html=1;endArrow=ERoneToMany;rounded=0;entryX=0.75;entryY=0;entryDx=0;entryDy=0;fillColor=#f8cecc;strokeColor=#b85450;exitX=-0.027;exitY=0.091;exitDx=0;exitDy=0;exitPerimeter=0;" parent="1" source="G-pwMspQCm_l3fC8CoRE-8" target="ZiqJFMMcZGOOglla-h1E-2" edge="1">
          <mxGeometry width="100" height="100" relative="1" as="geometry">
            <mxPoint x="160" y="-130" as="sourcePoint" />
            <mxPoint x="600" y="-190" as="targetPoint" />
            <Array as="points">
              <mxPoint x="380" y="-360" />
              <mxPoint x="430" y="-320" />
              <mxPoint x="390" y="-400" />
            </Array>
          </mxGeometry>
        </mxCell>
        <mxCell id="ZiqJFMMcZGOOglla-h1E-9" value="" style="edgeStyle=entityRelationEdgeStyle;fontSize=12;html=1;endArrow=ERoneToMany;rounded=0;entryX=0.44;entryY=1.019;entryDx=0;entryDy=0;entryPerimeter=0;exitX=0.447;exitY=0;exitDx=0;exitDy=0;exitPerimeter=0;fillColor=#e1d5e7;strokeColor=#9673a6;" parent="1" source="ZiqJFMMcZGOOglla-h1E-2" target="In3GsD_WQRW5BdMA_R7S-2" edge="1">
          <mxGeometry width="100" height="100" relative="1" as="geometry">
            <mxPoint x="500" y="-170" as="sourcePoint" />
            <mxPoint x="600" y="-270" as="targetPoint" />
          </mxGeometry>
        </mxCell>
        <mxCell id="ZiqJFMMcZGOOglla-h1E-10" value="" style="edgeStyle=entityRelationEdgeStyle;fontSize=12;html=1;endArrow=ERoneToMany;rounded=0;entryX=0.459;entryY=0.003;entryDx=0;entryDy=0;entryPerimeter=0;exitX=0.996;exitY=0.321;exitDx=0;exitDy=0;exitPerimeter=0;fillColor=#dae8fc;strokeColor=#6c8ebf;" parent="1" source="In3GsD_WQRW5BdMA_R7S-1" target="In3GsD_WQRW5BdMA_R7S-3" edge="1">
          <mxGeometry width="100" height="100" relative="1" as="geometry">
            <mxPoint x="500" y="-170" as="sourcePoint" />
            <mxPoint x="600" y="-270" as="targetPoint" />
          </mxGeometry>
        </mxCell>
        <mxCell id="ZiqJFMMcZGOOglla-h1E-11" value="" style="edgeStyle=entityRelationEdgeStyle;fontSize=12;html=1;endArrow=ERoneToMany;rounded=0;entryX=1.001;entryY=0.678;entryDx=0;entryDy=0;entryPerimeter=0;exitX=0.194;exitY=-0.008;exitDx=0;exitDy=0;exitPerimeter=0;fillColor=#d5e8d4;strokeColor=#82b366;" parent="1" source="G-pwMspQCm_l3fC8CoRE-5" target="ZiqJFMMcZGOOglla-h1E-3" edge="1">
          <mxGeometry width="100" height="100" relative="1" as="geometry">
            <mxPoint x="500" y="-90" as="sourcePoint" />
            <mxPoint x="600" y="-190" as="targetPoint" />
          </mxGeometry>
        </mxCell>
        <mxCell id="ZiqJFMMcZGOOglla-h1E-12" value="" style="edgeStyle=entityRelationEdgeStyle;fontSize=12;html=1;endArrow=ERoneToMany;rounded=0;entryX=1.002;entryY=0.363;entryDx=0;entryDy=0;entryPerimeter=0;exitX=0;exitY=0.576;exitDx=0;exitDy=0;exitPerimeter=0;fillColor=#f8cecc;strokeColor=#b85450;opacity=60;" parent="1" source="In3GsD_WQRW5BdMA_R7S-4" target="G-pwMspQCm_l3fC8CoRE-6" edge="1">
          <mxGeometry width="100" height="100" relative="1" as="geometry">
            <mxPoint x="500" y="-90" as="sourcePoint" />
            <mxPoint x="600" y="-190" as="targetPoint" />
          </mxGeometry>
        </mxCell>
        <mxCell id="ZiqJFMMcZGOOglla-h1E-13" value="COMBOS" style="swimlane;childLayout=stackLayout;horizontal=1;startSize=50;horizontalStack=0;rounded=1;fontSize=14;fontStyle=0;strokeWidth=2;resizeParent=0;resizeLast=1;shadow=0;dashed=0;align=center;arcSize=4;whiteSpace=wrap;html=1;fillColor=#eeeeee;strokeColor=#36393d;" parent="1" vertex="1">
          <mxGeometry x="100" y="-38.75" width="220" height="110" as="geometry" />
        </mxCell>
        <mxCell id="ZiqJFMMcZGOOglla-h1E-14" value="&lt;b&gt;id (INTEGER)&lt;br&gt;numero de modalidades (INTEGER)&lt;br&gt;modalidade id (INTEGER)&lt;/b&gt;" style="align=left;strokeColor=none;fillColor=none;spacingLeft=4;fontSize=12;verticalAlign=top;resizable=0;rotatable=0;part=1;html=1;" parent="ZiqJFMMcZGOOglla-h1E-13" vertex="1">
          <mxGeometry y="50" width="220" height="60" as="geometry" />
        </mxCell>
        <mxCell id="ZiqJFMMcZGOOglla-h1E-15" value="" style="edgeStyle=entityRelationEdgeStyle;fontSize=12;html=1;endArrow=ERoneToMany;rounded=0;entryX=0.546;entryY=1.024;entryDx=0;entryDy=0;entryPerimeter=0;exitX=0.5;exitY=0;exitDx=0;exitDy=0;" parent="1" source="ZiqJFMMcZGOOglla-h1E-13" target="ZiqJFMMcZGOOglla-h1E-3" edge="1">
          <mxGeometry width="100" height="100" relative="1" as="geometry">
            <mxPoint x="500" y="-60" as="sourcePoint" />
            <mxPoint x="600" y="-160" as="targetPoint" />
          </mxGeometry>
        </mxCell>
        <mxCell id="ZiqJFMMcZGOOglla-h1E-16" value="" style="edgeStyle=entityRelationEdgeStyle;fontSize=12;html=1;endArrow=ERmandOne;startArrow=ERmandOne;rounded=0;entryX=0.008;entryY=0.363;entryDx=0;entryDy=0;entryPerimeter=0;exitX=1;exitY=0.25;exitDx=0;exitDy=0;fillColor=#cdeb8b;strokeColor=#36393d;" parent="1" source="ZiqJFMMcZGOOglla-h1E-14" target="G-pwMspQCm_l3fC8CoRE-6" edge="1">
          <mxGeometry width="100" height="100" relative="1" as="geometry">
            <mxPoint x="500" y="-60" as="sourcePoint" />
            <mxPoint x="600" y="-160" as="targetPoint" />
          </mxGeometry>
        </mxCell>
        <mxCell id="TpiBvk_H0Ao282GoltaM-1" value="FATURAMENTO" style="swimlane;childLayout=stackLayout;horizontal=1;startSize=50;horizontalStack=0;rounded=1;fontSize=14;fontStyle=0;strokeWidth=2;resizeParent=0;resizeLast=1;shadow=0;dashed=0;align=center;arcSize=4;whiteSpace=wrap;html=1;fillColor=#ffe6cc;strokeColor=#d79b00;" vertex="1" parent="1">
          <mxGeometry x="320" y="-580" width="220" height="150" as="geometry" />
        </mxCell>
        <mxCell id="TpiBvk_H0Ao282GoltaM-2" value="&lt;b&gt;&lt;font color=&quot;#ff8000&quot;&gt;id &lt;/font&gt;(INTEGER)&lt;br&gt;&lt;font color=&quot;#ff8000&quot;&gt;mês &lt;/font&gt;(DATE)&lt;br&gt;&lt;font color=&quot;#ff8000&quot;&gt;valor bruto &lt;/font&gt;(DECIMAL)&lt;br&gt;&lt;font color=&quot;#ff8000&quot;&gt;salário dos instrutores &lt;/font&gt;(DECIMAL)&lt;br&gt;&lt;font color=&quot;#ff8000&quot;&gt;valor final &lt;/font&gt;(DECIMAL)&lt;/b&gt;" style="align=left;strokeColor=none;fillColor=none;spacingLeft=4;fontSize=12;verticalAlign=top;resizable=0;rotatable=0;part=1;html=1;" vertex="1" parent="TpiBvk_H0Ao282GoltaM-1">
          <mxGeometry y="50" width="220" height="100" as="geometry" />
        </mxCell>
      </root>
    </mxGraphModel>
  </diagram>
</mxfile>
